<svg width="66" height="66" viewBox="0 0 66 66" fill="none" xmlns="http://www.w3.org/2000/svg">
<g id="github-mark 1" clip-path="url(#clip0_108_9)">
<path id="Vector" fill-rule="evenodd" clip-rule="evenodd" d="M32.9017 0.707275C14.7079 0.707275 0 15.5236 0 33.8534C0 48.5054 9.42386 60.908 22.4973 65.2977C24.1318 65.6277 24.7305 64.5845 24.7305 63.707C24.7305 62.9385 24.6766 60.3046 24.6766 57.5602C15.5242 59.5362 13.6182 53.609 13.6182 53.609C12.1474 49.7675 9.96803 48.7802 9.96803 48.7802C6.97243 46.7497 10.1862 46.7497 10.1862 46.7497C13.5091 46.9692 15.2527 50.1521 15.2527 50.1521C18.1938 55.2004 22.933 53.774 24.8396 52.8958C25.1117 50.7555 25.9838 49.2738 26.9098 48.4509C19.6101 47.6824 11.9298 44.8289 11.9298 32.097C11.9298 28.4751 13.2364 25.5118 15.3066 23.2072C14.98 22.3842 13.8358 18.9812 15.6339 14.4265C15.6339 14.4265 18.412 13.5483 24.6759 17.8289C27.3578 17.1033 30.1235 16.7342 32.9017 16.7311C35.6798 16.7311 38.5117 17.1157 41.1268 17.8289C47.3914 13.5483 50.1695 14.4265 50.1695 14.4265C51.9676 18.9812 50.8227 22.3842 50.4961 23.2072C52.6209 25.5118 53.8736 28.4751 53.8736 32.097C53.8736 44.8289 46.1933 47.6272 38.839 48.4509C40.0378 49.4934 41.0722 51.4687 41.0722 54.5969C41.0722 59.0418 41.0184 62.6092 41.0184 63.7063C41.0184 64.5845 41.6177 65.6277 43.2516 65.2984C56.325 60.9074 65.7488 48.5054 65.7488 33.8534C65.8027 15.5236 51.0409 0.707275 32.9017 0.707275Z" fill="#24292F"/>
</g>
<defs>
<clipPath id="clip0_108_9">
<rect width="66" height="64.6531" fill="white" transform="translate(0 0.707275)"/>
</clipPath>
</defs>
</svg>
