<svg width="66" height="66" viewBox="0 0 66 66" fill="none" xmlns="http://www.w3.org/2000/svg">
<g id="linkedin-square-logo-svgrepo-com 1" clip-path="url(#clip0_108_11)">
<g id="Group">
<g id="Group_2">
<path id="Vector" d="M63.5299 0.707886H2.46929C1.1054 0.707886 0 1.79073 0 3.12679V62.9412C0 64.2775 1.1054 65.3602 2.46929 65.3602H63.5307C64.8947 65.3602 66 64.2774 66 62.9412V3.12679C65.9993 1.79073 64.8938 0.707886 63.5299 0.707886ZM17.5345 53.9085C17.5345 54.7994 16.7978 55.5209 15.8883 55.5209H9.29777C8.38913 55.5209 7.65157 54.7993 7.65157 53.9085V25.6903C7.65157 24.7993 8.38913 24.0777 9.29777 24.0777H15.8883C16.7978 24.0777 17.5345 24.7993 17.5345 25.6903V53.9085ZM17.5345 17.503C17.5345 18.394 16.7978 19.1156 15.8883 19.1156H9.29777C8.38913 19.1156 7.65157 18.3939 7.65157 17.503V11.7703C7.65157 10.8793 8.38913 10.1577 9.29777 10.1577H15.8883C16.7978 10.1577 17.5345 10.8793 17.5345 11.7703V17.503ZM58.3478 53.9085C58.3478 54.7994 57.6103 55.5209 56.7016 55.5209H50.111C49.2014 55.5209 48.4648 54.7993 48.4648 53.9085V41.9937C48.4648 38.0429 48.2542 35.4876 47.8311 34.3274C47.4088 33.1671 46.7233 32.2657 45.7733 31.6232C44.8235 30.9797 43.6809 30.6588 42.3443 30.6588C40.6323 30.6588 39.0964 31.1183 37.7366 32.0367C36.3769 32.9559 35.4451 34.1725 34.9405 35.6884C34.4368 37.2043 34.1849 40.007 34.1849 44.0948V53.9085C34.1849 54.7994 33.4475 55.5209 32.5387 55.5209H25.9481C25.0395 55.5209 24.3019 54.7993 24.3019 53.9085V25.6903C24.3019 24.7993 25.0394 24.0777 25.9481 24.0777H31.835C32.7446 24.0777 33.4812 24.7993 33.4812 25.6903V27.8399C33.4812 28.7309 33.9267 28.8744 34.5381 28.2156C37.6131 24.9057 41.364 23.2504 45.7915 23.2504C47.9719 23.2504 49.9645 23.635 51.7704 24.4043C53.5755 25.1734 54.9417 26.1555 55.8678 27.3496C56.7938 28.5437 57.4391 29.8991 57.8021 31.415C58.1651 32.9308 58.3479 35.1013 58.3479 37.9268V53.9085H58.3478Z" fill="black"/>
</g>
</g>
</g>
<defs>
<clipPath id="clip0_108_11">
<rect width="66" height="64.6531" fill="white" transform="translate(0 0.707275)"/>
</clipPath>
</defs>
</svg>
